<svg width="300" height="37" viewBox="0 0 300 37" fill="none" xmlns="http://www.w3.org/2000/svg">
<path d="M9 10L11.1 16.5H18L12.4 20.5L14.6 27L9 23L3.4 27L5.6 20.5L0 16.5H6.9L9 10Z" fill="#83B3D3"/>
<path d="M33 10L35.1 16.5H42L36.4 20.5L38.6 27L33 23L27.4 27L29.6 20.5L24 16.5H30.9L33 10Z" fill="#83B3D3"/>
<path d="M57 10L59.1 16.5H66L60.4 20.5L62.6 27L57 23L51.4 27L53.6 20.5L48 16.5H54.9L57 10Z" fill="#83B3D3"/>
<rect x="140" width="160" height="37" rx="4" fill="#F2F2F2"/>
<path d="M174.462 13.912C174.867 13.816 175.304 13.752 175.774 13.72C176.243 13.688 176.707 13.672 177.166 13.672C177.656 13.672 178.152 13.72 178.654 13.816C179.166 13.912 179.63 14.088 180.046 14.344C180.462 14.6 180.798 14.952 181.054 15.4C181.32 15.848 181.454 16.4187 181.454 17.112C181.454 17.7947 181.331 18.3707 181.086 18.84C180.84 19.3093 180.515 19.6933 180.11 19.992C179.704 20.28 179.24 20.488 178.718 20.616C178.195 20.744 177.656 20.808 177.102 20.808C177.048 20.808 176.958 20.808 176.83 20.808C176.712 20.808 176.584 20.808 176.446 20.808C176.318 20.7973 176.19 20.7867 176.062 20.776C175.934 20.7653 175.843 20.7547 175.79 20.744V25H174.462V13.912ZM177.198 14.824C176.92 14.824 176.654 14.8293 176.398 14.84C176.142 14.8507 175.939 14.8773 175.79 14.92V19.56C175.843 19.5813 175.928 19.5973 176.046 19.608C176.163 19.608 176.286 19.6133 176.414 19.624C176.542 19.624 176.664 19.624 176.782 19.624C176.899 19.624 176.984 19.624 177.038 19.624C177.4 19.624 177.758 19.592 178.11 19.528C178.472 19.4533 178.798 19.3253 179.086 19.144C179.374 18.9627 179.603 18.7067 179.774 18.376C179.955 18.0453 180.046 17.624 180.046 17.112C180.046 16.6747 179.96 16.312 179.79 16.024C179.63 15.7253 179.411 15.4907 179.134 15.32C178.867 15.1387 178.563 15.0107 178.222 14.936C177.88 14.8613 177.539 14.824 177.198 14.824ZM183.399 13.8H189.495V14.984H184.727V18.648H189.095V19.832H184.727V23.816H189.575V25H183.399V13.8ZM198.825 17.416L198.921 16.136H198.857L198.169 17.448L192.761 25H191.977V13.8H193.305V21.48L193.193 22.744H193.257L193.961 21.432L199.369 13.8H200.153V25H198.825V17.416ZM194.745 11.08C194.788 11.4747 194.937 11.7787 195.193 11.992C195.449 12.2053 195.791 12.312 196.217 12.312C196.644 12.312 196.98 12.2053 197.225 11.992C197.481 11.7787 197.636 11.48 197.689 11.096L198.825 11.368C198.708 11.944 198.436 12.4027 198.009 12.744C197.593 13.0747 196.991 13.24 196.201 13.24C195.444 13.24 194.82 13.096 194.329 12.808C193.849 12.5093 193.567 12.04 193.481 11.4L194.745 11.08ZM210.1 14.984H206.612V25H205.284V14.984H201.796V13.8H210.1V14.984ZM218.591 17.416L218.687 16.136H218.623L217.935 17.448L212.527 25H211.743V13.8H213.071V21.48L212.959 22.744H213.023L213.727 21.432L219.135 13.8H219.919V25H218.591V17.416ZM229.337 19.864H223.961V25H222.633V13.8H223.961V18.68H229.337V13.8H230.665V25H229.337V19.864ZM239.383 14.984H234.711V25H233.383V13.8H239.383V14.984ZM240.558 17.816C240.558 17.528 240.638 17.304 240.798 17.144C240.968 16.9733 241.192 16.888 241.47 16.888C241.758 16.888 241.987 16.9733 242.158 17.144C242.328 17.304 242.414 17.528 242.414 17.816C242.414 18.0933 242.328 18.3173 242.158 18.488C241.987 18.6587 241.758 18.744 241.47 18.744C241.192 18.744 240.968 18.6587 240.798 18.488C240.638 18.3173 240.558 18.0933 240.558 17.816ZM240.558 24.264C240.558 23.976 240.638 23.752 240.798 23.592C240.968 23.4213 241.192 23.336 241.47 23.336C241.758 23.336 241.987 23.4213 242.158 23.592C242.328 23.752 242.414 23.976 242.414 24.264C242.414 24.5413 242.328 24.7653 242.158 24.936C241.987 25.1067 241.758 25.192 241.47 25.192C241.192 25.192 240.968 25.1067 240.798 24.936C240.638 24.7653 240.558 24.5413 240.558 24.264ZM254.739 21.624C254.739 22.1147 254.665 22.5787 254.515 23.016C254.366 23.4427 254.147 23.8213 253.859 24.152C253.571 24.472 253.214 24.728 252.787 24.92C252.361 25.1013 251.875 25.192 251.331 25.192C250.798 25.192 250.318 25.1067 249.891 24.936C249.465 24.7653 249.097 24.5147 248.787 24.184C248.478 23.8427 248.238 23.4267 248.067 22.936C247.907 22.4453 247.827 21.88 247.827 21.24C247.827 20.184 247.961 19.2133 248.227 18.328C248.505 17.432 248.883 16.6533 249.363 15.992C249.843 15.3307 250.409 14.7973 251.059 14.392C251.721 13.976 252.435 13.7147 253.203 13.608L253.475 14.632C252.878 14.7387 252.334 14.9413 251.843 15.24C251.353 15.5387 250.921 15.9067 250.547 16.344C250.185 16.7813 249.886 17.272 249.651 17.816C249.417 18.36 249.257 18.92 249.171 19.496C249.342 19.208 249.63 18.9467 250.035 18.712C250.441 18.4667 250.937 18.344 251.523 18.344C252.526 18.344 253.31 18.632 253.875 19.208C254.451 19.784 254.739 20.5893 254.739 21.624ZM253.411 21.752C253.411 20.9947 253.235 20.424 252.883 20.04C252.531 19.656 251.987 19.464 251.251 19.464C250.729 19.464 250.275 19.592 249.891 19.848C249.518 20.104 249.257 20.392 249.107 20.712C249.086 20.8613 249.075 20.984 249.075 21.08C249.075 21.176 249.075 21.2827 249.075 21.4C249.075 21.7307 249.118 22.056 249.203 22.376C249.299 22.696 249.443 22.984 249.635 23.24C249.827 23.4853 250.062 23.688 250.339 23.848C250.627 23.9973 250.963 24.072 251.347 24.072C251.657 24.072 251.934 24.0133 252.179 23.896C252.435 23.7787 252.654 23.6187 252.835 23.416C253.017 23.2133 253.155 22.968 253.251 22.68C253.358 22.392 253.411 22.0827 253.411 21.752ZM256.37 24.312C256.37 24.056 256.455 23.848 256.626 23.688C256.797 23.528 257.015 23.448 257.282 23.448C257.613 23.448 257.879 23.5653 258.082 23.8C258.295 24.0347 258.402 24.376 258.402 24.824C258.402 25.208 258.349 25.544 258.242 25.832C258.135 26.12 257.997 26.3653 257.826 26.568C257.655 26.7813 257.469 26.952 257.266 27.08C257.063 27.2187 256.861 27.32 256.658 27.384L256.258 26.76C256.642 26.6107 256.925 26.376 257.106 26.056C257.298 25.7467 257.394 25.432 257.394 25.112C257.298 25.144 257.207 25.16 257.122 25.16C256.909 25.16 256.727 25.0907 256.578 24.952C256.439 24.8027 256.37 24.5893 256.37 24.312ZM260.012 17.192C260.012 16.68 260.086 16.2053 260.236 15.768C260.385 15.3307 260.604 14.952 260.892 14.632C261.18 14.312 261.537 14.0613 261.964 13.88C262.401 13.6987 262.908 13.608 263.484 13.608C264.572 13.608 265.42 13.96 266.028 14.664C266.636 15.368 266.94 16.36 266.94 17.64C266.94 18.8453 266.801 19.9013 266.524 20.808C266.257 21.704 265.884 22.4613 265.404 23.08C264.924 23.6987 264.353 24.184 263.692 24.536C263.041 24.8773 262.332 25.096 261.564 25.192L261.276 24.168C261.894 24.072 262.449 23.8907 262.94 23.624C263.441 23.3573 263.868 23.0213 264.22 22.616C264.582 22.2107 264.876 21.752 265.1 21.24C265.324 20.7173 265.478 20.152 265.564 19.544C265.276 19.8853 264.956 20.1253 264.604 20.264C264.262 20.392 263.809 20.456 263.244 20.456C262.806 20.456 262.39 20.3867 261.996 20.248C261.612 20.0987 261.27 19.8853 260.972 19.608C260.673 19.3307 260.438 18.9893 260.268 18.584C260.097 18.1787 260.012 17.7147 260.012 17.192ZM261.34 17.064C261.34 17.8213 261.537 18.392 261.932 18.776C262.337 19.1493 262.865 19.336 263.516 19.336C264.038 19.336 264.486 19.2507 264.86 19.08C265.233 18.9093 265.5 18.6853 265.66 18.408C265.681 18.2693 265.692 18.1467 265.692 18.04C265.692 17.9333 265.692 17.8213 265.692 17.704C265.692 17.32 265.644 16.952 265.548 16.6C265.462 16.2373 265.329 15.9173 265.148 15.64C264.966 15.352 264.726 15.128 264.428 14.968C264.14 14.808 263.798 14.728 263.404 14.728C262.753 14.728 262.246 14.936 261.884 15.352C261.521 15.7573 261.34 16.328 261.34 17.064Z" fill="#333333"/>
</svg>
