<svg width="300" height="37" viewBox="0 0 300 37" fill="none" xmlns="http://www.w3.org/2000/svg">
<path d="M9 10L11.1 16.5H18L12.4 20.5L14.6 27L9 23L3.4 27L5.6 20.5L0 16.5H6.9L9 10Z" fill="#83B3D3"/>
<path d="M33 10L35.1 16.5H42L36.4 20.5L38.6 27L33 23L27.4 27L29.6 20.5L24 16.5H30.9L33 10Z" fill="#83B3D3"/>
<path d="M57 10L59.1 16.5H66L60.4 20.5L62.6 27L57 23L51.4 27L53.6 20.5L48 16.5H54.9L57 10Z" fill="#83B3D3"/>
<path d="M81 10L83.1 16.5H90L84.4 20.5L86.6 27L81 23L75.4 27L77.6 20.5L72 16.5H78.9L81 10Z" fill="#83B3D3"/>
<rect x="160" width="140" height="37" rx="4" fill="#F2F2F2"/>
<path d="M184.462 13.912C184.867 13.816 185.304 13.752 185.774 13.72C186.243 13.688 186.707 13.672 187.166 13.672C187.656 13.672 188.152 13.72 188.654 13.816C189.166 13.912 189.63 14.088 190.046 14.344C190.462 14.6 190.798 14.952 191.054 15.4C191.32 15.848 191.454 16.4187 191.454 17.112C191.454 17.7947 191.331 18.3707 191.086 18.84C190.84 19.3093 190.515 19.6933 190.11 19.992C189.704 20.28 189.24 20.488 188.718 20.616C188.195 20.744 187.656 20.808 187.102 20.808C187.048 20.808 186.958 20.808 186.83 20.808C186.712 20.808 186.584 20.808 186.446 20.808C186.318 20.7973 186.19 20.7867 186.062 20.776C185.934 20.7653 185.843 20.7547 185.79 20.744V25H184.462V13.912ZM187.198 14.824C186.92 14.824 186.654 14.8293 186.398 14.84C186.142 14.8507 185.939 14.8773 185.79 14.92V19.56C185.843 19.5813 185.928 19.5973 186.046 19.608C186.163 19.608 186.286 19.6133 186.414 19.624C186.542 19.624 186.664 19.624 186.782 19.624C186.899 19.624 186.984 19.624 187.038 19.624C187.4 19.624 187.758 19.592 188.11 19.528C188.472 19.4533 188.798 19.3253 189.086 19.144C189.374 18.9627 189.603 18.7067 189.774 18.376C189.955 18.0453 190.046 17.624 190.046 17.112C190.046 16.6747 189.96 16.312 189.79 16.024C189.63 15.7253 189.411 15.4907 189.134 15.32C188.867 15.1387 188.563 15.0107 188.222 14.936C187.88 14.8613 187.539 14.824 187.198 14.824ZM193.399 13.8H199.495V14.984H194.727V18.648H199.095V19.832H194.727V23.816H199.575V25H193.399V13.8ZM208.825 17.416L208.921 16.136H208.857L208.169 17.448L202.761 25H201.977V13.8H203.305V21.48L203.193 22.744H203.257L203.961 21.432L209.369 13.8H210.153V25H208.825V17.416ZM204.745 11.08C204.788 11.4747 204.937 11.7787 205.193 11.992C205.449 12.2053 205.791 12.312 206.217 12.312C206.644 12.312 206.98 12.2053 207.225 11.992C207.481 11.7787 207.636 11.48 207.689 11.096L208.825 11.368C208.708 11.944 208.436 12.4027 208.009 12.744C207.593 13.0747 206.991 13.24 206.201 13.24C205.444 13.24 204.82 13.096 204.329 12.808C203.849 12.5093 203.567 12.04 203.481 11.4L204.745 11.08ZM220.1 14.984H216.612V25H215.284V14.984H211.796V13.8H220.1V14.984ZM228.591 17.416L228.687 16.136H228.623L227.935 17.448L222.527 25H221.743V13.8H223.071V21.48L222.959 22.744H223.023L223.727 21.432L229.135 13.8H229.919V25H228.591V17.416ZM239.337 19.864H233.961V25H232.633V13.8H233.961V18.68H239.337V13.8H240.665V25H239.337V19.864ZM249.383 14.984H244.711V25H243.383V13.8H249.383V14.984ZM250.558 17.816C250.558 17.528 250.638 17.304 250.798 17.144C250.968 16.9733 251.192 16.888 251.47 16.888C251.758 16.888 251.987 16.9733 252.158 17.144C252.328 17.304 252.414 17.528 252.414 17.816C252.414 18.0933 252.328 18.3173 252.158 18.488C251.987 18.6587 251.758 18.744 251.47 18.744C251.192 18.744 250.968 18.6587 250.798 18.488C250.638 18.3173 250.558 18.0933 250.558 17.816ZM250.558 24.264C250.558 23.976 250.638 23.752 250.798 23.592C250.968 23.4213 251.192 23.336 251.47 23.336C251.758 23.336 251.987 23.4213 252.158 23.592C252.328 23.752 252.414 23.976 252.414 24.264C252.414 24.5413 252.328 24.7653 252.158 24.936C251.987 25.1067 251.758 25.192 251.47 25.192C251.192 25.192 250.968 25.1067 250.798 24.936C250.638 24.7653 250.558 24.5413 250.558 24.264ZM257.955 22.328C257.955 21.656 258.131 21.0747 258.483 20.584C258.835 20.0827 259.385 19.6293 260.131 19.224C259.865 19.064 259.614 18.8987 259.379 18.728C259.155 18.5467 258.953 18.344 258.771 18.12C258.601 17.896 258.462 17.6453 258.355 17.368C258.259 17.0907 258.211 16.7707 258.211 16.408C258.211 15.992 258.281 15.6133 258.419 15.272C258.569 14.9307 258.777 14.6373 259.043 14.392C259.321 14.1467 259.646 13.9547 260.019 13.816C260.403 13.6773 260.835 13.608 261.315 13.608C261.763 13.608 262.169 13.672 262.531 13.8C262.894 13.928 263.198 14.104 263.443 14.328C263.699 14.552 263.897 14.8187 264.035 15.128C264.174 15.4373 264.243 15.7787 264.243 16.152C264.243 16.76 264.105 17.2987 263.827 17.768C263.55 18.2267 263.091 18.68 262.451 19.128C262.729 19.288 262.99 19.464 263.235 19.656C263.491 19.848 263.71 20.0613 263.891 20.296C264.083 20.5307 264.233 20.7973 264.339 21.096C264.446 21.384 264.499 21.7147 264.499 22.088C264.499 22.5467 264.425 22.968 264.275 23.352C264.126 23.7253 263.907 24.0507 263.619 24.328C263.331 24.5947 262.979 24.808 262.563 24.968C262.147 25.1173 261.673 25.192 261.139 25.192C260.627 25.192 260.174 25.1173 259.779 24.968C259.385 24.8187 259.049 24.616 258.771 24.36C258.505 24.104 258.302 23.8053 258.163 23.464C258.025 23.112 257.955 22.7333 257.955 22.328ZM263.251 22.168C263.251 21.848 263.187 21.5707 263.059 21.336C262.931 21.0907 262.761 20.872 262.547 20.68C262.345 20.4773 262.11 20.296 261.843 20.136C261.577 19.976 261.299 19.8213 261.011 19.672C260.361 20.0347 259.897 20.44 259.619 20.888C259.342 21.336 259.203 21.7627 259.203 22.168C259.203 22.424 259.246 22.6693 259.331 22.904C259.417 23.1387 259.545 23.3413 259.715 23.512C259.886 23.6827 260.094 23.8213 260.339 23.928C260.595 24.024 260.889 24.072 261.219 24.072C261.486 24.072 261.742 24.0347 261.987 23.96C262.233 23.8747 262.446 23.7573 262.627 23.608C262.819 23.448 262.969 23.2507 263.075 23.016C263.193 22.7707 263.251 22.488 263.251 22.168ZM259.459 16.376C259.459 16.6747 259.518 16.9413 259.635 17.176C259.753 17.4 259.907 17.6027 260.099 17.784C260.302 17.9653 260.531 18.136 260.787 18.296C261.043 18.4453 261.31 18.5893 261.587 18.728C262.067 18.3547 262.419 17.9867 262.643 17.624C262.878 17.2613 262.995 16.8613 262.995 16.424C262.995 15.88 262.825 15.464 262.483 15.176C262.153 14.8773 261.753 14.728 261.283 14.728C260.995 14.728 260.739 14.776 260.515 14.872C260.291 14.968 260.099 15.0907 259.939 15.24C259.779 15.3893 259.657 15.5653 259.571 15.768C259.497 15.96 259.459 16.1627 259.459 16.376ZM266.37 24.312C266.37 24.056 266.455 23.848 266.626 23.688C266.797 23.528 267.015 23.448 267.282 23.448C267.613 23.448 267.879 23.5653 268.082 23.8C268.295 24.0347 268.402 24.376 268.402 24.824C268.402 25.208 268.349 25.544 268.242 25.832C268.135 26.12 267.997 26.3653 267.826 26.568C267.655 26.7813 267.469 26.952 267.266 27.08C267.063 27.2187 266.861 27.32 266.658 27.384L266.258 26.76C266.642 26.6107 266.925 26.376 267.106 26.056C267.298 25.7467 267.394 25.432 267.394 25.112C267.298 25.144 267.207 25.16 267.122 25.16C266.909 25.16 266.727 25.0907 266.578 24.952C266.439 24.8027 266.37 24.5893 266.37 24.312ZM272.588 24.072C273.324 24.072 273.932 23.8587 274.412 23.432C274.892 23.0053 275.132 22.3867 275.132 21.576C275.132 20.7973 274.892 20.216 274.412 19.832C273.942 19.448 273.292 19.256 272.46 19.256L271.116 19.336V13.8H276.108V14.984H272.316V18.168L273.004 18.136C274.06 18.1467 274.892 18.44 275.5 19.016C276.108 19.592 276.412 20.4187 276.412 21.496C276.412 22.0933 276.31 22.6267 276.108 23.096C275.905 23.5547 275.628 23.9387 275.276 24.248C274.934 24.5573 274.529 24.792 274.06 24.952C273.59 25.112 273.089 25.192 272.556 25.192C272.076 25.192 271.67 25.1653 271.34 25.112C271.009 25.0587 270.7 24.9787 270.412 24.872L270.748 23.784C270.993 23.88 271.254 23.9547 271.532 24.008C271.82 24.0507 272.172 24.072 272.588 24.072Z" fill="#333333"/>
</svg>
