<svg width="300" height="37" viewBox="0 0 300 37" fill="none" xmlns="http://www.w3.org/2000/svg">
<path d="M9 10L11.1 16.5H18L12.4 20.5L14.6 27L9 23L3.4 27L5.6 20.5L0 16.5H6.9L9 10Z" fill="#83B3D3"/>
<path d="M33 10L35.1 16.5H42L36.4 20.5L38.6 27L33 23L27.4 27L29.6 20.5L24 16.5H30.9L33 10Z" fill="#83B3D3"/>
<rect x="140" width="160" height="37" rx="4" fill="#F2F2F2"/>
<path d="M174.462 13.912C174.867 13.816 175.304 13.752 175.774 13.72C176.243 13.688 176.707 13.672 177.166 13.672C177.656 13.672 178.152 13.72 178.654 13.816C179.166 13.912 179.63 14.088 180.046 14.344C180.462 14.6 180.798 14.952 181.054 15.4C181.32 15.848 181.454 16.4187 181.454 17.112C181.454 17.7947 181.331 18.3707 181.086 18.84C180.84 19.3093 180.515 19.6933 180.11 19.992C179.704 20.28 179.24 20.488 178.718 20.616C178.195 20.744 177.656 20.808 177.102 20.808C177.048 20.808 176.958 20.808 176.83 20.808C176.712 20.808 176.584 20.808 176.446 20.808C176.318 20.7973 176.19 20.7867 176.062 20.776C175.934 20.7653 175.843 20.7547 175.79 20.744V25H174.462V13.912ZM177.198 14.824C176.92 14.824 176.654 14.8293 176.398 14.84C176.142 14.8507 175.939 14.8773 175.79 14.92V19.56C175.843 19.5813 175.928 19.5973 176.046 19.608C176.163 19.608 176.286 19.6133 176.414 19.624C176.542 19.624 176.664 19.624 176.782 19.624C176.899 19.624 176.984 19.624 177.038 19.624C177.4 19.624 177.758 19.592 178.11 19.528C178.472 19.4533 178.798 19.3253 179.086 19.144C179.374 18.9627 179.603 18.7067 179.774 18.376C179.955 18.0453 180.046 17.624 180.046 17.112C180.046 16.6747 179.96 16.312 179.79 16.024C179.63 15.7253 179.411 15.4907 179.134 15.32C178.867 15.1387 178.563 15.0107 178.222 14.936C177.88 14.8613 177.539 14.824 177.198 14.824ZM183.399 13.8H189.495V14.984H184.727V18.648H189.095V19.832H184.727V23.816H189.575V25H183.399V13.8ZM198.825 17.416L198.921 16.136H198.857L198.169 17.448L192.761 25H191.977V13.8H193.305V21.48L193.193 22.744H193.257L193.961 21.432L199.369 13.8H200.153V25H198.825V17.416ZM194.745 11.08C194.788 11.4747 194.937 11.7787 195.193 11.992C195.449 12.2053 195.791 12.312 196.217 12.312C196.644 12.312 196.98 12.2053 197.225 11.992C197.481 11.7787 197.636 11.48 197.689 11.096L198.825 11.368C198.708 11.944 198.436 12.4027 198.009 12.744C197.593 13.0747 196.991 13.24 196.201 13.24C195.444 13.24 194.82 13.096 194.329 12.808C193.849 12.5093 193.567 12.04 193.481 11.4L194.745 11.08ZM210.1 14.984H206.612V25H205.284V14.984H201.796V13.8H210.1V14.984ZM218.591 17.416L218.687 16.136H218.623L217.935 17.448L212.527 25H211.743V13.8H213.071V21.48L212.959 22.744H213.023L213.727 21.432L219.135 13.8H219.919V25H218.591V17.416ZM229.337 19.864H223.961V25H222.633V13.8H223.961V18.68H229.337V13.8H230.665V25H229.337V19.864ZM239.383 14.984H234.711V25H233.383V13.8H239.383V14.984ZM240.558 17.816C240.558 17.528 240.638 17.304 240.798 17.144C240.968 16.9733 241.192 16.888 241.47 16.888C241.758 16.888 241.987 16.9733 242.158 17.144C242.328 17.304 242.414 17.528 242.414 17.816C242.414 18.0933 242.328 18.3173 242.158 18.488C241.987 18.6587 241.758 18.744 241.47 18.744C241.192 18.744 240.968 18.6587 240.798 18.488C240.638 18.3173 240.558 18.0933 240.558 17.816ZM240.558 24.264C240.558 23.976 240.638 23.752 240.798 23.592C240.968 23.4213 241.192 23.336 241.47 23.336C241.758 23.336 241.987 23.4213 242.158 23.592C242.328 23.752 242.414 23.976 242.414 24.264C242.414 24.5413 242.328 24.7653 242.158 24.936C241.987 25.1067 241.758 25.192 241.47 25.192C241.192 25.192 240.968 25.1067 240.798 24.936C240.638 24.7653 240.558 24.5413 240.558 24.264ZM250.275 24.072C251.011 24.072 251.619 23.8587 252.099 23.432C252.579 23.0053 252.819 22.3867 252.819 21.576C252.819 20.7973 252.579 20.216 252.099 19.832C251.63 19.448 250.979 19.256 250.147 19.256L248.803 19.336V13.8H253.795V14.984H250.003V18.168L250.691 18.136C251.747 18.1467 252.579 18.44 253.187 19.016C253.795 19.592 254.099 20.4187 254.099 21.496C254.099 22.0933 253.998 22.6267 253.795 23.096C253.593 23.5547 253.315 23.9387 252.963 24.248C252.622 24.5573 252.217 24.792 251.747 24.952C251.278 25.112 250.777 25.192 250.243 25.192C249.763 25.192 249.358 25.1653 249.027 25.112C248.697 25.0587 248.387 24.9787 248.099 24.872L248.435 23.784C248.681 23.88 248.942 23.9547 249.219 24.008C249.507 24.0507 249.859 24.072 250.275 24.072ZM256.37 24.312C256.37 24.056 256.455 23.848 256.626 23.688C256.797 23.528 257.015 23.448 257.282 23.448C257.613 23.448 257.879 23.5653 258.082 23.8C258.295 24.0347 258.402 24.376 258.402 24.824C258.402 25.208 258.349 25.544 258.242 25.832C258.135 26.12 257.997 26.3653 257.826 26.568C257.655 26.7813 257.469 26.952 257.266 27.08C257.063 27.2187 256.861 27.32 256.658 27.384L256.258 26.76C256.642 26.6107 256.925 26.376 257.106 26.056C257.298 25.7467 257.394 25.432 257.394 25.112C257.298 25.144 257.207 25.16 257.122 25.16C256.909 25.16 256.727 25.0907 256.578 24.952C256.439 24.8027 256.37 24.5893 256.37 24.312ZM259.868 19.4C259.868 17.48 260.177 16.0347 260.796 15.064C261.425 14.0933 262.337 13.608 263.532 13.608C264.822 13.608 265.756 14.088 266.332 15.048C266.918 15.9973 267.212 17.448 267.212 19.4C267.212 21.32 266.897 22.7653 266.268 23.736C265.649 24.7067 264.737 25.192 263.532 25.192C262.262 25.192 261.334 24.6853 260.748 23.672C260.161 22.6587 259.868 21.2347 259.868 19.4ZM261.196 19.4C261.196 20.0933 261.238 20.728 261.324 21.304C261.42 21.8693 261.564 22.36 261.756 22.776C261.948 23.1813 262.188 23.5013 262.476 23.736C262.774 23.96 263.126 24.072 263.532 24.072C264.342 24.072 264.934 23.6987 265.308 22.952C265.692 22.1947 265.884 21.0107 265.884 19.4C265.884 18.7173 265.841 18.088 265.756 17.512C265.681 16.936 265.548 16.44 265.356 16.024C265.174 15.608 264.934 15.288 264.636 15.064C264.337 14.84 263.969 14.728 263.532 14.728C262.732 14.728 262.14 15.1067 261.756 15.864C261.382 16.6213 261.196 17.8 261.196 19.4Z" fill="#333333"/>
</svg>
