<svg width="300" height="37" viewBox="0 0 300 37" fill="none" xmlns="http://www.w3.org/2000/svg">
<path d="M9 10L11.1 16.5H18L12.4 20.5L14.6 27L9 23L3.4 27L5.6 20.5L0 16.5H6.9L9 10Z" fill="#83B3D3"/>
<path d="M33 10L35.1 16.5H42L36.4 20.5L38.6 27L33 23L27.4 27L29.6 20.5L24 16.5H30.9L33 10Z" fill="#83B3D3"/>
<path d="M57 10L59.1 16.5H66L60.4 20.5L62.6 27L57 23L51.4 27L53.6 20.5L48 16.5H54.9L57 10Z" fill="#83B3D3"/>
<path d="M81 10L83.1 16.5H90L84.4 20.5L86.6 27L81 23L75.4 27L77.6 20.5L72 16.5H78.9L81 10Z" fill="#83B3D3"/>
<rect x="140" width="160" height="37" rx="4" fill="#F2F2F2"/>
<path d="M174.462 13.912C174.867 13.816 175.304 13.752 175.774 13.72C176.243 13.688 176.707 13.672 177.166 13.672C177.656 13.672 178.152 13.72 178.654 13.816C179.166 13.912 179.63 14.088 180.046 14.344C180.462 14.6 180.798 14.952 181.054 15.4C181.32 15.848 181.454 16.4187 181.454 17.112C181.454 17.7947 181.331 18.3707 181.086 18.84C180.84 19.3093 180.515 19.6933 180.11 19.992C179.704 20.28 179.24 20.488 178.718 20.616C178.195 20.744 177.656 20.808 177.102 20.808C177.048 20.808 176.958 20.808 176.83 20.808C176.712 20.808 176.584 20.808 176.446 20.808C176.318 20.7973 176.19 20.7867 176.062 20.776C175.934 20.7653 175.843 20.7547 175.79 20.744V25H174.462V13.912ZM177.198 14.824C176.92 14.824 176.654 14.8293 176.398 14.84C176.142 14.8507 175.939 14.8773 175.79 14.92V19.56C175.843 19.5813 175.928 19.5973 176.046 19.608C176.163 19.608 176.286 19.6133 176.414 19.624C176.542 19.624 176.664 19.624 176.782 19.624C176.899 19.624 176.984 19.624 177.038 19.624C177.4 19.624 177.758 19.592 178.11 19.528C178.472 19.4533 178.798 19.3253 179.086 19.144C179.374 18.9627 179.603 18.7067 179.774 18.376C179.955 18.0453 180.046 17.624 180.046 17.112C180.046 16.6747 179.96 16.312 179.79 16.024C179.63 15.7253 179.411 15.4907 179.134 15.32C178.867 15.1387 178.563 15.0107 178.222 14.936C177.88 14.8613 177.539 14.824 177.198 14.824ZM183.399 13.8H189.495V14.984H184.727V18.648H189.095V19.832H184.727V23.816H189.575V25H183.399V13.8ZM198.825 17.416L198.921 16.136H198.857L198.169 17.448L192.761 25H191.977V13.8H193.305V21.48L193.193 22.744H193.257L193.961 21.432L199.369 13.8H200.153V25H198.825V17.416ZM194.745 11.08C194.788 11.4747 194.937 11.7787 195.193 11.992C195.449 12.2053 195.791 12.312 196.217 12.312C196.644 12.312 196.98 12.2053 197.225 11.992C197.481 11.7787 197.636 11.48 197.689 11.096L198.825 11.368C198.708 11.944 198.436 12.4027 198.009 12.744C197.593 13.0747 196.991 13.24 196.201 13.24C195.444 13.24 194.82 13.096 194.329 12.808C193.849 12.5093 193.567 12.04 193.481 11.4L194.745 11.08ZM210.1 14.984H206.612V25H205.284V14.984H201.796V13.8H210.1V14.984ZM218.591 17.416L218.687 16.136H218.623L217.935 17.448L212.527 25H211.743V13.8H213.071V21.48L212.959 22.744H213.023L213.727 21.432L219.135 13.8H219.919V25H218.591V17.416ZM229.337 19.864H223.961V25H222.633V13.8H223.961V18.68H229.337V13.8H230.665V25H229.337V19.864ZM239.383 14.984H234.711V25H233.383V13.8H239.383V14.984ZM240.558 17.816C240.558 17.528 240.638 17.304 240.798 17.144C240.968 16.9733 241.192 16.888 241.47 16.888C241.758 16.888 241.987 16.9733 242.158 17.144C242.328 17.304 242.414 17.528 242.414 17.816C242.414 18.0933 242.328 18.3173 242.158 18.488C241.987 18.6587 241.758 18.744 241.47 18.744C241.192 18.744 240.968 18.6587 240.798 18.488C240.638 18.3173 240.558 18.0933 240.558 17.816ZM240.558 24.264C240.558 23.976 240.638 23.752 240.798 23.592C240.968 23.4213 241.192 23.336 241.47 23.336C241.758 23.336 241.987 23.4213 242.158 23.592C242.328 23.752 242.414 23.976 242.414 24.264C242.414 24.5413 242.328 24.7653 242.158 24.936C241.987 25.1067 241.758 25.192 241.47 25.192C241.192 25.192 240.968 25.1067 240.798 24.936C240.638 24.7653 240.558 24.5413 240.558 24.264ZM247.699 17.192C247.699 16.68 247.774 16.2053 247.923 15.768C248.073 15.3307 248.291 14.952 248.579 14.632C248.867 14.312 249.225 14.0613 249.651 13.88C250.089 13.6987 250.595 13.608 251.171 13.608C252.259 13.608 253.107 13.96 253.715 14.664C254.323 15.368 254.627 16.36 254.627 17.64C254.627 18.8453 254.489 19.9013 254.211 20.808C253.945 21.704 253.571 22.4613 253.091 23.08C252.611 23.6987 252.041 24.184 251.379 24.536C250.729 24.8773 250.019 25.096 249.251 25.192L248.963 24.168C249.582 24.072 250.137 23.8907 250.627 23.624C251.129 23.3573 251.555 23.0213 251.907 22.616C252.27 22.2107 252.563 21.752 252.787 21.24C253.011 20.7173 253.166 20.152 253.251 19.544C252.963 19.8853 252.643 20.1253 252.291 20.264C251.95 20.392 251.497 20.456 250.931 20.456C250.494 20.456 250.078 20.3867 249.683 20.248C249.299 20.0987 248.958 19.8853 248.659 19.608C248.361 19.3307 248.126 18.9893 247.955 18.584C247.785 18.1787 247.699 17.7147 247.699 17.192ZM249.027 17.064C249.027 17.8213 249.225 18.392 249.619 18.776C250.025 19.1493 250.553 19.336 251.203 19.336C251.726 19.336 252.174 19.2507 252.547 19.08C252.921 18.9093 253.187 18.6853 253.347 18.408C253.369 18.2693 253.379 18.1467 253.379 18.04C253.379 17.9333 253.379 17.8213 253.379 17.704C253.379 17.32 253.331 16.952 253.235 16.6C253.15 16.2373 253.017 15.9173 252.835 15.64C252.654 15.352 252.414 15.128 252.115 14.968C251.827 14.808 251.486 14.728 251.091 14.728C250.441 14.728 249.934 14.936 249.571 15.352C249.209 15.7573 249.027 16.328 249.027 17.064ZM256.37 24.312C256.37 24.056 256.455 23.848 256.626 23.688C256.797 23.528 257.015 23.448 257.282 23.448C257.613 23.448 257.879 23.5653 258.082 23.8C258.295 24.0347 258.402 24.376 258.402 24.824C258.402 25.208 258.349 25.544 258.242 25.832C258.135 26.12 257.997 26.3653 257.826 26.568C257.655 26.7813 257.469 26.952 257.266 27.08C257.063 27.2187 256.861 27.32 256.658 27.384L256.258 26.76C256.642 26.6107 256.925 26.376 257.106 26.056C257.298 25.7467 257.394 25.432 257.394 25.112C257.298 25.144 257.207 25.16 257.122 25.16C256.909 25.16 256.727 25.0907 256.578 24.952C256.439 24.8027 256.37 24.5893 256.37 24.312ZM266.316 16.344C266.316 16.9093 266.209 17.4907 265.996 18.088C265.793 18.6747 265.521 19.2667 265.18 19.864C264.849 20.4613 264.476 21.048 264.06 21.624C263.644 22.1893 263.228 22.728 262.812 23.24L262.028 23.928V23.992L263.052 23.816H266.54V25H260.172V24.536C260.406 24.2907 260.689 23.9867 261.02 23.624C261.35 23.2613 261.692 22.8613 262.044 22.424C262.406 21.976 262.758 21.5067 263.1 21.016C263.452 20.5147 263.766 20.008 264.044 19.496C264.332 18.984 264.561 18.4773 264.732 17.976C264.902 17.4747 264.988 17 264.988 16.552C264.988 16.0293 264.838 15.5973 264.54 15.256C264.241 14.904 263.788 14.728 263.18 14.728C262.774 14.728 262.38 14.8133 261.996 14.984C261.612 15.144 261.281 15.3307 261.004 15.544L260.476 14.632C260.849 14.312 261.292 14.0613 261.804 13.88C262.316 13.6987 262.865 13.608 263.452 13.608C263.91 13.608 264.316 13.6773 264.668 13.816C265.02 13.944 265.318 14.1307 265.564 14.376C265.809 14.6213 265.996 14.9147 266.124 15.256C266.252 15.5867 266.316 15.9493 266.316 16.344Z" fill="#333333"/>
</svg>
