<svg width="308" height="45" viewBox="0 0 308 45" fill="none" xmlns="http://www.w3.org/2000/svg">
<g filter="url(#filter0_d_35220_456)">
<path d="M13 10L15.1 16.5H22L16.4 20.5L18.6 27L13 23L7.4 27L9.6 20.5L4 16.5H10.9L13 10Z" fill="#83B3D3"/>
<path d="M37 10L39.1 16.5H46L40.4 20.5L42.6 27L37 23L31.4 27L33.6 20.5L28 16.5H34.9L37 10Z" fill="#83B3D3"/>
<path d="M61 10L63.1 16.5H70L64.4 20.5L66.6 27L61 23L55.4 27L57.6 20.5L52 16.5H58.9L61 10Z" fill="#83B3D3"/>
<path d="M85 10L87.1 16.5H94L88.4 20.5L90.6 27L85 23L79.4 27L81.6 20.5L76 16.5H82.9L85 10Z" fill="#83B3D3"/>
</g>
<g filter="url(#filter1_d_35220_456)">
<rect x="144" width="160" height="37" rx="4" fill="#F2F2F2"/>
</g>
<path d="M178.462 13.912C178.867 13.816 179.304 13.752 179.774 13.72C180.243 13.688 180.707 13.672 181.166 13.672C181.656 13.672 182.152 13.72 182.654 13.816C183.166 13.912 183.63 14.088 184.046 14.344C184.462 14.6 184.798 14.952 185.054 15.4C185.32 15.848 185.454 16.4187 185.454 17.112C185.454 17.7947 185.331 18.3707 185.086 18.84C184.84 19.3093 184.515 19.6933 184.11 19.992C183.704 20.28 183.24 20.488 182.718 20.616C182.195 20.744 181.656 20.808 181.102 20.808C181.048 20.808 180.958 20.808 180.83 20.808C180.712 20.808 180.584 20.808 180.446 20.808C180.318 20.7973 180.19 20.7867 180.062 20.776C179.934 20.7653 179.843 20.7547 179.79 20.744V25H178.462V13.912ZM181.198 14.824C180.92 14.824 180.654 14.8293 180.398 14.84C180.142 14.8507 179.939 14.8773 179.79 14.92V19.56C179.843 19.5813 179.928 19.5973 180.046 19.608C180.163 19.608 180.286 19.6133 180.414 19.624C180.542 19.624 180.664 19.624 180.782 19.624C180.899 19.624 180.984 19.624 181.038 19.624C181.4 19.624 181.758 19.592 182.11 19.528C182.472 19.4533 182.798 19.3253 183.086 19.144C183.374 18.9627 183.603 18.7067 183.774 18.376C183.955 18.0453 184.046 17.624 184.046 17.112C184.046 16.6747 183.96 16.312 183.79 16.024C183.63 15.7253 183.411 15.4907 183.134 15.32C182.867 15.1387 182.563 15.0107 182.222 14.936C181.88 14.8613 181.539 14.824 181.198 14.824ZM187.399 13.8H193.495V14.984H188.727V18.648H193.095V19.832H188.727V23.816H193.575V25H187.399V13.8ZM202.825 17.416L202.921 16.136H202.857L202.169 17.448L196.761 25H195.977V13.8H197.305V21.48L197.193 22.744H197.257L197.961 21.432L203.369 13.8H204.153V25H202.825V17.416ZM198.745 11.08C198.788 11.4747 198.937 11.7787 199.193 11.992C199.449 12.2053 199.791 12.312 200.217 12.312C200.644 12.312 200.98 12.2053 201.225 11.992C201.481 11.7787 201.636 11.48 201.689 11.096L202.825 11.368C202.708 11.944 202.436 12.4027 202.009 12.744C201.593 13.0747 200.991 13.24 200.201 13.24C199.444 13.24 198.82 13.096 198.329 12.808C197.849 12.5093 197.567 12.04 197.481 11.4L198.745 11.08ZM214.1 14.984H210.612V25H209.284V14.984H205.796V13.8H214.1V14.984ZM222.591 17.416L222.687 16.136H222.623L221.935 17.448L216.527 25H215.743V13.8H217.071V21.48L216.959 22.744H217.023L217.727 21.432L223.135 13.8H223.919V25H222.591V17.416ZM233.337 19.864H227.961V25H226.633V13.8H227.961V18.68H233.337V13.8H234.665V25H233.337V19.864ZM243.383 14.984H238.711V25H237.383V13.8H243.383V14.984ZM244.558 17.816C244.558 17.528 244.638 17.304 244.798 17.144C244.968 16.9733 245.192 16.888 245.47 16.888C245.758 16.888 245.987 16.9733 246.158 17.144C246.328 17.304 246.414 17.528 246.414 17.816C246.414 18.0933 246.328 18.3173 246.158 18.488C245.987 18.6587 245.758 18.744 245.47 18.744C245.192 18.744 244.968 18.6587 244.798 18.488C244.638 18.3173 244.558 18.0933 244.558 17.816ZM244.558 24.264C244.558 23.976 244.638 23.752 244.798 23.592C244.968 23.4213 245.192 23.336 245.47 23.336C245.758 23.336 245.987 23.4213 246.158 23.592C246.328 23.752 246.414 23.976 246.414 24.264C246.414 24.5413 246.328 24.7653 246.158 24.936C245.987 25.1067 245.758 25.192 245.47 25.192C245.192 25.192 244.968 25.1067 244.798 24.936C244.638 24.7653 244.558 24.5413 244.558 24.264ZM251.955 22.328C251.955 21.656 252.131 21.0747 252.483 20.584C252.835 20.0827 253.385 19.6293 254.131 19.224C253.865 19.064 253.614 18.8987 253.379 18.728C253.155 18.5467 252.953 18.344 252.771 18.12C252.601 17.896 252.462 17.6453 252.355 17.368C252.259 17.0907 252.211 16.7707 252.211 16.408C252.211 15.992 252.281 15.6133 252.419 15.272C252.569 14.9307 252.777 14.6373 253.043 14.392C253.321 14.1467 253.646 13.9547 254.019 13.816C254.403 13.6773 254.835 13.608 255.315 13.608C255.763 13.608 256.169 13.672 256.531 13.8C256.894 13.928 257.198 14.104 257.443 14.328C257.699 14.552 257.897 14.8187 258.035 15.128C258.174 15.4373 258.243 15.7787 258.243 16.152C258.243 16.76 258.105 17.2987 257.827 17.768C257.55 18.2267 257.091 18.68 256.451 19.128C256.729 19.288 256.99 19.464 257.235 19.656C257.491 19.848 257.71 20.0613 257.891 20.296C258.083 20.5307 258.233 20.7973 258.339 21.096C258.446 21.384 258.499 21.7147 258.499 22.088C258.499 22.5467 258.425 22.968 258.275 23.352C258.126 23.7253 257.907 24.0507 257.619 24.328C257.331 24.5947 256.979 24.808 256.563 24.968C256.147 25.1173 255.673 25.192 255.139 25.192C254.627 25.192 254.174 25.1173 253.779 24.968C253.385 24.8187 253.049 24.616 252.771 24.36C252.505 24.104 252.302 23.8053 252.163 23.464C252.025 23.112 251.955 22.7333 251.955 22.328ZM257.251 22.168C257.251 21.848 257.187 21.5707 257.059 21.336C256.931 21.0907 256.761 20.872 256.547 20.68C256.345 20.4773 256.11 20.296 255.843 20.136C255.577 19.976 255.299 19.8213 255.011 19.672C254.361 20.0347 253.897 20.44 253.619 20.888C253.342 21.336 253.203 21.7627 253.203 22.168C253.203 22.424 253.246 22.6693 253.331 22.904C253.417 23.1387 253.545 23.3413 253.715 23.512C253.886 23.6827 254.094 23.8213 254.339 23.928C254.595 24.024 254.889 24.072 255.219 24.072C255.486 24.072 255.742 24.0347 255.987 23.96C256.233 23.8747 256.446 23.7573 256.627 23.608C256.819 23.448 256.969 23.2507 257.075 23.016C257.193 22.7707 257.251 22.488 257.251 22.168ZM253.459 16.376C253.459 16.6747 253.518 16.9413 253.635 17.176C253.753 17.4 253.907 17.6027 254.099 17.784C254.302 17.9653 254.531 18.136 254.787 18.296C255.043 18.4453 255.31 18.5893 255.587 18.728C256.067 18.3547 256.419 17.9867 256.643 17.624C256.878 17.2613 256.995 16.8613 256.995 16.424C256.995 15.88 256.825 15.464 256.483 15.176C256.153 14.8773 255.753 14.728 255.283 14.728C254.995 14.728 254.739 14.776 254.515 14.872C254.291 14.968 254.099 15.0907 253.939 15.24C253.779 15.3893 253.657 15.5653 253.571 15.768C253.497 15.96 253.459 16.1627 253.459 16.376ZM260.37 24.312C260.37 24.056 260.455 23.848 260.626 23.688C260.797 23.528 261.015 23.448 261.282 23.448C261.613 23.448 261.879 23.5653 262.082 23.8C262.295 24.0347 262.402 24.376 262.402 24.824C262.402 25.208 262.349 25.544 262.242 25.832C262.135 26.12 261.997 26.3653 261.826 26.568C261.655 26.7813 261.469 26.952 261.266 27.08C261.063 27.2187 260.861 27.32 260.658 27.384L260.258 26.76C260.642 26.6107 260.925 26.376 261.106 26.056C261.298 25.7467 261.394 25.432 261.394 25.112C261.298 25.144 261.207 25.16 261.122 25.16C260.909 25.16 260.727 25.0907 260.578 24.952C260.439 24.8027 260.37 24.5893 260.37 24.312ZM266.588 24.072C267.324 24.072 267.932 23.8587 268.412 23.432C268.892 23.0053 269.132 22.3867 269.132 21.576C269.132 20.7973 268.892 20.216 268.412 19.832C267.942 19.448 267.292 19.256 266.46 19.256L265.116 19.336V13.8H270.108V14.984H266.316V18.168L267.004 18.136C268.06 18.1467 268.892 18.44 269.5 19.016C270.108 19.592 270.412 20.4187 270.412 21.496C270.412 22.0933 270.31 22.6267 270.108 23.096C269.905 23.5547 269.628 23.9387 269.276 24.248C268.934 24.5573 268.529 24.792 268.06 24.952C267.59 25.112 267.089 25.192 266.556 25.192C266.076 25.192 265.67 25.1653 265.34 25.112C265.009 25.0587 264.7 24.9787 264.412 24.872L264.748 23.784C264.993 23.88 265.254 23.9547 265.532 24.008C265.82 24.0507 266.172 24.072 266.588 24.072Z" fill="#333333"/>
<defs>
<filter id="filter0_d_35220_456" x="0" y="0" width="148" height="45" filterUnits="userSpaceOnUse" color-interpolation-filters="sRGB">
<feFlood flood-opacity="0" result="BackgroundImageFix"/>
<feColorMatrix in="SourceAlpha" type="matrix" values="0 0 0 0 0 0 0 0 0 0 0 0 0 0 0 0 0 0 127 0" result="hardAlpha"/>
<feOffset dy="4"/>
<feGaussianBlur stdDeviation="2"/>
<feComposite in2="hardAlpha" operator="out"/>
<feColorMatrix type="matrix" values="0 0 0 0 0 0 0 0 0 0 0 0 0 0 0 0 0 0 0.25 0"/>
<feBlend mode="normal" in2="BackgroundImageFix" result="effect1_dropShadow_35220_456"/>
<feBlend mode="normal" in="SourceGraphic" in2="effect1_dropShadow_35220_456" result="shape"/>
</filter>
<filter id="filter1_d_35220_456" x="140" y="0" width="168" height="45" filterUnits="userSpaceOnUse" color-interpolation-filters="sRGB">
<feFlood flood-opacity="0" result="BackgroundImageFix"/>
<feColorMatrix in="SourceAlpha" type="matrix" values="0 0 0 0 0 0 0 0 0 0 0 0 0 0 0 0 0 0 127 0" result="hardAlpha"/>
<feOffset dy="4"/>
<feGaussianBlur stdDeviation="2"/>
<feComposite in2="hardAlpha" operator="out"/>
<feColorMatrix type="matrix" values="0 0 0 0 0 0 0 0 0 0 0 0 0 0 0 0 0 0 0.25 0"/>
<feBlend mode="normal" in2="BackgroundImageFix" result="effect1_dropShadow_35220_456"/>
<feBlend mode="normal" in="SourceGraphic" in2="effect1_dropShadow_35220_456" result="shape"/>
</filter>
</defs>
</svg>
