<svg width="574" height="60" viewBox="0 0 574 60" fill="none" xmlns="http://www.w3.org/2000/svg">
<rect width="574" height="60" rx="4" fill="#756157"/>
<path d="M158.252 25.44H153.352V37H150.612V23H160.992V37H158.252V25.44ZM162.946 30C162.946 27.6667 163.459 25.8733 164.486 24.62C165.512 23.3533 166.979 22.72 168.886 22.72C169.886 22.72 170.759 22.8933 171.506 23.24C172.252 23.5867 172.872 24.08 173.366 24.72C173.859 25.36 174.226 26.1267 174.466 27.02C174.706 27.9133 174.826 28.9067 174.826 30C174.826 32.3333 174.306 34.1333 173.266 35.4C172.239 36.6533 170.779 37.28 168.886 37.28C167.872 37.28 166.992 37.1067 166.246 36.76C165.499 36.4133 164.879 35.92 164.386 35.28C163.906 34.64 163.546 33.8733 163.306 32.98C163.066 32.0867 162.946 31.0933 162.946 30ZM165.826 30C165.826 30.7067 165.886 31.36 166.006 31.96C166.126 32.5467 166.306 33.0533 166.546 33.48C166.799 33.9067 167.119 34.24 167.506 34.48C167.892 34.72 168.352 34.84 168.886 34.84C169.859 34.84 170.612 34.46 171.146 33.7C171.679 32.94 171.946 31.7067 171.946 30C171.946 29.32 171.886 28.6867 171.766 28.1C171.659 27.5133 171.486 27 171.246 26.56C171.006 26.12 170.692 25.78 170.306 25.54C169.919 25.2867 169.446 25.16 168.886 25.16C167.912 25.16 167.159 25.5533 166.626 26.34C166.092 27.1133 165.826 28.3333 165.826 30ZM184.944 29.24L185.104 27.42H185.004L184.064 29.3L178.844 37H176.784V23H179.524V30.62L179.324 32.5H179.444L180.424 30.56L185.644 23H187.684V37H184.944V29.24ZM199.584 36.42C199.158 36.7267 198.611 36.9467 197.944 37.08C197.291 37.2133 196.618 37.28 195.924 37.28C195.084 37.28 194.284 37.1533 193.524 36.9C192.778 36.6333 192.118 36.2133 191.544 35.64C190.971 35.0533 190.511 34.3 190.164 33.38C189.831 32.4467 189.664 31.32 189.664 30C189.664 28.6267 189.851 27.48 190.224 26.56C190.611 25.6267 191.104 24.88 191.704 24.32C192.318 23.7467 192.998 23.34 193.744 23.1C194.491 22.8467 195.238 22.72 195.984 22.72C196.784 22.72 197.458 22.7733 198.004 22.88C198.564 22.9867 199.024 23.1133 199.384 23.26L198.844 25.58C198.538 25.4333 198.171 25.3267 197.744 25.26C197.331 25.1933 196.824 25.16 196.224 25.16C195.118 25.16 194.224 25.5533 193.544 26.34C192.878 27.1267 192.544 28.3467 192.544 30C192.544 30.72 192.624 31.38 192.784 31.98C192.944 32.5667 193.184 33.0733 193.504 33.5C193.838 33.9133 194.244 34.24 194.724 34.48C195.218 34.7067 195.784 34.82 196.424 34.82C197.024 34.82 197.531 34.76 197.944 34.64C198.358 34.52 198.718 34.3667 199.024 34.18L199.584 36.42ZM204.736 31.02H204.016V37H201.276V23H204.016V29.2L204.656 28.92L208.516 23H211.636L207.556 28.88L206.476 29.64L207.596 30.42L212.256 37H208.876L204.736 31.02ZM226.545 25.44H221.145V37H218.405V23H226.545V25.44ZM226.696 30C226.696 27.6667 227.209 25.8733 228.236 24.62C229.262 23.3533 230.729 22.72 232.636 22.72C233.636 22.72 234.509 22.8933 235.256 23.24C236.002 23.5867 236.622 24.08 237.116 24.72C237.609 25.36 237.976 26.1267 238.216 27.02C238.456 27.9133 238.576 28.9067 238.576 30C238.576 32.3333 238.056 34.1333 237.016 35.4C235.989 36.6533 234.529 37.28 232.636 37.28C231.622 37.28 230.742 37.1067 229.996 36.76C229.249 36.4133 228.629 35.92 228.136 35.28C227.656 34.64 227.296 33.8733 227.056 32.98C226.816 32.0867 226.696 31.0933 226.696 30ZM229.576 30C229.576 30.7067 229.636 31.36 229.756 31.96C229.876 32.5467 230.056 33.0533 230.296 33.48C230.549 33.9067 230.869 34.24 231.256 34.48C231.642 34.72 232.102 34.84 232.636 34.84C233.609 34.84 234.362 34.46 234.896 33.7C235.429 32.94 235.696 31.7067 235.696 30C235.696 29.32 235.636 28.6867 235.516 28.1C235.409 27.5133 235.236 27 234.996 26.56C234.756 26.12 234.442 25.78 234.056 25.54C233.669 25.2867 233.196 25.16 232.636 25.16C231.662 25.16 230.909 25.5533 230.376 26.34C229.842 27.1133 229.576 28.3333 229.576 30ZM250.014 36.42C249.587 36.7267 249.041 36.9467 248.374 37.08C247.721 37.2133 247.047 37.28 246.354 37.28C245.514 37.28 244.714 37.1533 243.954 36.9C243.207 36.6333 242.547 36.2133 241.974 35.64C241.401 35.0533 240.941 34.3 240.594 33.38C240.261 32.4467 240.094 31.32 240.094 30C240.094 28.6267 240.281 27.48 240.654 26.56C241.041 25.6267 241.534 24.88 242.134 24.32C242.747 23.7467 243.427 23.34 244.174 23.1C244.921 22.8467 245.667 22.72 246.414 22.72C247.214 22.72 247.887 22.7733 248.434 22.88C248.994 22.9867 249.454 23.1133 249.814 23.26L249.274 25.58C248.967 25.4333 248.601 25.3267 248.174 25.26C247.761 25.1933 247.254 25.16 246.654 25.16C245.547 25.16 244.654 25.5533 243.974 26.34C243.307 27.1267 242.974 28.3467 242.974 30C242.974 30.72 243.054 31.38 243.214 31.98C243.374 32.5667 243.614 33.0733 243.934 33.5C244.267 33.9133 244.674 34.24 245.154 34.48C245.647 34.7067 246.214 34.82 246.854 34.82C247.454 34.82 247.961 34.76 248.374 34.64C248.787 34.52 249.147 34.3667 249.454 34.18L250.014 36.42ZM261.529 25.44H257.449V37H254.709V25.44H250.609V23H261.529V25.44ZM271.116 29.24L271.276 27.42H271.176L270.236 29.3L265.016 37H262.956V23H265.696V30.62L265.496 32.5H265.616L266.596 30.56L271.816 23H273.856V37H271.116V29.24ZM284.136 31.14H279.016V37H276.276V23H279.016V28.7H284.136V23H286.876V37H284.136V31.14ZM297.464 29.24L297.624 27.42H297.524L296.584 29.3L291.364 37H289.304V23H292.044V30.62L291.844 32.5H291.964L292.944 30.56L298.164 23H300.204V37H297.464V29.24ZM314.724 39.5H312.784L312.484 37H302.624V23H305.364V34.56H310.184V23H312.924V34.56H314.724V39.5ZM327.057 23H329.797V37H327.057V23ZM316.257 23H318.997V28.02C319.143 27.9933 319.377 27.96 319.697 27.92C320.017 27.88 320.33 27.86 320.637 27.86C321.303 27.86 321.937 27.9267 322.537 28.06C323.15 28.1933 323.683 28.4333 324.137 28.78C324.59 29.1133 324.95 29.5733 325.217 30.16C325.483 30.7333 325.617 31.46 325.617 32.34C325.617 33.9667 325.143 35.1867 324.197 36C323.25 36.8 321.843 37.2 319.977 37.2C319.79 37.2 319.55 37.1933 319.257 37.18C318.963 37.18 318.643 37.1667 318.297 37.14C317.963 37.1133 317.617 37.08 317.257 37.04C316.897 37 316.563 36.94 316.257 36.86V23ZM320.177 34.76C320.937 34.76 321.55 34.5867 322.017 34.24C322.497 33.88 322.737 33.2867 322.737 32.46C322.737 32.02 322.67 31.66 322.537 31.38C322.403 31.1 322.223 30.88 321.997 30.72C321.77 30.56 321.503 30.4533 321.197 30.4C320.89 30.3333 320.557 30.3 320.197 30.3C320.01 30.3 319.79 30.32 319.537 30.36C319.283 30.3867 319.103 30.42 318.997 30.46V34.64C319.143 34.68 319.317 34.7133 319.517 34.74C319.73 34.7533 319.95 34.76 320.177 34.76ZM346.692 26.26C346.692 26.6067 346.646 26.9533 346.552 27.3C346.472 27.6467 346.332 27.9667 346.132 28.26C345.932 28.54 345.672 28.7933 345.352 29.02C345.032 29.2333 344.646 29.3933 344.192 29.5V29.62C344.592 29.6867 344.972 29.8 345.332 29.96C345.692 30.12 346.006 30.34 346.272 30.62C346.539 30.9 346.746 31.24 346.892 31.64C347.052 32.04 347.132 32.5133 347.132 33.06C347.132 33.78 346.979 34.4067 346.672 34.94C346.366 35.46 345.952 35.8867 345.432 36.22C344.926 36.5533 344.346 36.8 343.692 36.96C343.039 37.12 342.366 37.2 341.672 37.2C341.446 37.2 341.152 37.2 340.792 37.2C340.446 37.2 340.066 37.1867 339.652 37.16C339.252 37.1467 338.839 37.12 338.412 37.08C337.999 37.04 337.619 36.98 337.272 36.9V23.1C337.526 23.06 337.812 23.02 338.132 22.98C338.466 22.94 338.819 22.9067 339.192 22.88C339.566 22.8533 339.946 22.8333 340.332 22.82C340.732 22.8067 341.126 22.8 341.512 22.8C342.166 22.8 342.799 22.8533 343.412 22.96C344.039 23.0533 344.592 23.2267 345.072 23.48C345.566 23.7333 345.959 24.0867 346.252 24.54C346.546 24.9933 346.692 25.5667 346.692 26.26ZM341.692 34.94C342.026 34.94 342.346 34.9 342.652 34.82C342.972 34.74 343.252 34.62 343.492 34.46C343.732 34.2867 343.926 34.0733 344.072 33.82C344.219 33.5667 344.292 33.2667 344.292 32.92C344.292 32.48 344.206 32.1333 344.032 31.88C343.859 31.6267 343.632 31.4333 343.352 31.3C343.072 31.1533 342.759 31.06 342.412 31.02C342.066 30.98 341.719 30.96 341.372 30.96H339.912V34.82C339.979 34.8467 340.086 34.8667 340.232 34.88C340.379 34.8933 340.532 34.9067 340.692 34.92C340.866 34.92 341.039 34.9267 341.212 34.94C341.399 34.94 341.559 34.94 341.692 34.94ZM340.792 28.88C340.979 28.88 341.192 28.8733 341.432 28.86C341.686 28.8467 341.892 28.8267 342.052 28.8C342.559 28.64 342.992 28.4 343.352 28.08C343.726 27.76 343.912 27.34 343.912 26.82C343.912 26.4733 343.846 26.1867 343.712 25.96C343.579 25.7333 343.399 25.5533 343.172 25.42C342.959 25.2867 342.712 25.1933 342.432 25.14C342.152 25.0867 341.859 25.06 341.552 25.06C341.206 25.06 340.886 25.0667 340.592 25.08C340.299 25.0933 340.072 25.1133 339.912 25.14V28.88H340.792ZM363.373 36.42C362.947 36.7267 362.4 36.9467 361.733 37.08C361.08 37.2133 360.407 37.28 359.713 37.28C358.873 37.28 358.073 37.1533 357.313 36.9C356.567 36.6333 355.907 36.2133 355.333 35.64C354.76 35.0533 354.3 34.3 353.953 33.38C353.62 32.4467 353.453 31.32 353.453 30C353.453 28.6267 353.64 27.48 354.013 26.56C354.4 25.6267 354.893 24.88 355.493 24.32C356.107 23.7467 356.787 23.34 357.533 23.1C358.28 22.8467 359.027 22.72 359.773 22.72C360.573 22.72 361.247 22.7733 361.793 22.88C362.353 22.9867 362.813 23.1133 363.173 23.26L362.633 25.58C362.327 25.4333 361.96 25.3267 361.533 25.26C361.12 25.1933 360.613 25.16 360.013 25.16C358.907 25.16 358.013 25.5533 357.333 26.34C356.667 27.1267 356.333 28.3467 356.333 30C356.333 30.72 356.413 31.38 356.573 31.98C356.733 32.5667 356.973 33.0733 357.293 33.5C357.627 33.9133 358.033 34.24 358.513 34.48C359.007 34.7067 359.573 34.82 360.213 34.82C360.813 34.82 361.32 34.76 361.733 34.64C362.147 34.52 362.507 34.3667 362.813 34.18L363.373 36.42ZM365.065 23H373.365V25.44H367.805V28.7H372.865V31.14H367.805V34.56H373.465V37H365.065V23ZM387.794 39.5H385.854L385.554 37H376.554L376.254 39.5H374.314V34.56H375.794C375.888 34.4133 376.041 34.0867 376.254 33.58C376.468 33.0733 376.681 32.36 376.894 31.44C377.108 30.5067 377.288 29.3467 377.434 27.96C377.581 26.56 377.648 24.9067 377.634 23H386.014V34.56H387.794V39.5ZM383.274 34.56V25.44H380.174C380.094 27.8133 379.901 29.76 379.594 31.28C379.301 32.7867 379.001 33.88 378.694 34.56H383.274ZM388.473 30C388.473 27.6667 388.986 25.8733 390.013 24.62C391.04 23.3533 392.506 22.72 394.413 22.72C395.413 22.72 396.286 22.8933 397.033 23.24C397.78 23.5867 398.4 24.08 398.893 24.72C399.386 25.36 399.753 26.1267 399.993 27.02C400.233 27.9133 400.353 28.9067 400.353 30C400.353 32.3333 399.833 34.1333 398.793 35.4C397.766 36.6533 396.306 37.28 394.413 37.28C393.4 37.28 392.52 37.1067 391.773 36.76C391.026 36.4133 390.406 35.92 389.913 35.28C389.433 34.64 389.073 33.8733 388.833 32.98C388.593 32.0867 388.473 31.0933 388.473 30ZM391.353 30C391.353 30.7067 391.413 31.36 391.533 31.96C391.653 32.5467 391.833 33.0533 392.073 33.48C392.326 33.9067 392.646 34.24 393.033 34.48C393.42 34.72 393.88 34.84 394.413 34.84C395.386 34.84 396.14 34.46 396.673 33.7C397.206 32.94 397.473 31.7067 397.473 30C397.473 29.32 397.413 28.6867 397.293 28.1C397.186 27.5133 397.013 27 396.773 26.56C396.533 26.12 396.22 25.78 395.833 25.54C395.446 25.2867 394.973 25.16 394.413 25.16C393.44 25.16 392.686 25.5533 392.153 26.34C391.62 27.1133 391.353 28.3333 391.353 30ZM410.171 31.14H405.051V37H402.311V23H405.051V28.7H410.171V23H412.911V37H410.171V31.14ZM415.339 23H423.639V25.44H418.079V28.7H423.139V31.14H418.079V34.56H423.739V37H415.339V23Z" fill="white"/>
</svg>
